<?xml version="1.0" standalone="no"?>
<!DOCTYPE svg PUBLIC "-//W3C//DTD SVG 20010904//EN"
 "http://www.w3.org/TR/2001/REC-SVG-20010904/DTD/svg10.dtd">
<svg version="1.0" xmlns="http://www.w3.org/2000/svg"
 width="256.000000pt" height="256.000000pt" viewBox="0 0 256.000000 256.000000"
 preserveAspectRatio="xMidYMid meet">

<g transform="translate(0.000000,256.000000) scale(0.100000,-0.100000)"
fill="#000000" stroke="none">
<path d="M0 1280 l0 -1280 1280 0 1280 0 0 1280 0 1280 -1280 0 -1280 0 0
-1280z m958 610 l112 -22 0 -130 c0 -120 -1 -130 -17 -123 -242 98 -474 109
-548 25 -27 -30 -27 -100 -1 -129 22 -24 97 -48 269 -85 286 -61 390 -171 374
-393 -17 -241 -170 -352 -483 -353 -125 0 -262 21 -376 57 l-78 24 0 129 0
130 23 -9 c12 -5 48 -21 80 -35 97 -44 212 -69 317 -70 82 -1 102 2 145 24 62
31 82 76 62 137 -17 52 -65 76 -223 112 -218 50 -307 93 -364 178 -42 64 -53
113 -48 219 3 73 9 101 31 147 44 88 133 153 252 184 78 20 334 11 473 -17z
m1277 0 c39 -12 87 -31 108 -41 l37 -19 0 -121 c0 -66 -3 -119 -7 -117 -5 2
-35 17 -69 35 -211 110 -445 87 -549 -55 -102 -138 -102 -406 0 -544 105 -142
337 -165 549 -55 34 18 64 33 69 35 4 2 7 -51 7 -117 l0 -121 -38 -19 c-20
-10 -71 -30 -112 -42 -66 -21 -94 -24 -235 -23 -146 0 -167 2 -241 27 -95 31
-181 85 -245 153 -62 65 -93 118 -126 211 -25 71 -27 91 -27 223 0 132 2 152
27 223 72 205 216 330 442 383 93 21 320 13 410 -16z"/>
</g>
</svg>
